<?xml version="1.0" encoding="us-ascii" standalone="no"?><svg xmlns="http://www.w3.org/2000/svg" xmlns:xlink="http://www.w3.org/1999/xlink" contentStyleType="text/css" height="751px" preserveAspectRatio="none" style="width:630px;height:751px;background:#FFFFFF;" version="1.1" viewBox="0 0 630 751" width="630px" zoomAndPan="magnify"><defs/><g><text fill="#000000" font-family="sans-serif" font-size="14" font-weight="bold" lengthAdjust="spacing" textLength="200" x="216.75" y="27.9951">Detecting Terraform Drift</text><rect fill="#CD853F" height="236.7969" style="stroke:#181818;stroke-width:1.0;" width="10" x="107" y="104.7266"/><rect fill="#B0E0E6" height="463.3359" style="stroke:#181818;stroke-width:1.0;" width="10" x="308" y="218.125"/><rect fill="none" height="101.3984" style="stroke:#000000;stroke-width:1.5;" width="245" x="50" y="233.125"/><rect fill="none" height="332.9375" style="stroke:#000000;stroke-width:1.5;" width="436.5" x="188" y="366.5234"/><rect fill="none" height="134.1406" style="stroke:#000000;stroke-width:1.5;" width="352" x="262.5" y="540.3203"/><line style="stroke:#181818;stroke-width:0.5;stroke-dasharray:5.0,5.0;" x1="112" x2="112" y1="73.5938" y2="716.4609"/><line style="stroke:#181818;stroke-width:0.5;stroke-dasharray:5.0,5.0;" x1="312.5" x2="312.5" y1="73.5938" y2="716.4609"/><rect fill="#CD853F" height="30.2969" rx="2.5" ry="2.5" style="stroke:#181818;stroke-width:0.5;" width="104" x="60" y="42.2969"/><text fill="#000000" font-family="sans-serif" font-size="14" lengthAdjust="spacing" textLength="90" x="67" y="62.292">terraform.yml</text><rect fill="#CD853F" height="30.2969" rx="2.5" ry="2.5" style="stroke:#181818;stroke-width:0.5;" width="104" x="60" y="715.4609"/><text fill="#000000" font-family="sans-serif" font-size="14" lengthAdjust="spacing" textLength="90" x="67" y="735.4561">terraform.yml</text><rect fill="#B0E0E6" height="30.2969" rx="2.5" ry="2.5" style="stroke:#181818;stroke-width:0.5;" width="81" x="272.5" y="42.2969"/><text fill="#000000" font-family="sans-serif" font-size="14" lengthAdjust="spacing" textLength="67" x="279.5" y="62.292">tf-drift.yml</text><rect fill="#B0E0E6" height="30.2969" rx="2.5" ry="2.5" style="stroke:#181818;stroke-width:0.5;" width="81" x="272.5" y="715.4609"/><text fill="#000000" font-family="sans-serif" font-size="14" lengthAdjust="spacing" textLength="67" x="279.5" y="735.4561">tf-drift.yml</text><rect fill="#CD853F" height="236.7969" style="stroke:#181818;stroke-width:1.0;" width="10" x="107" y="104.7266"/><rect fill="#B0E0E6" height="463.3359" style="stroke:#181818;stroke-width:1.0;" width="10" x="308" y="218.125"/><ellipse cx="7.5" cy="103.9766" fill="none" rx="4" ry="4" style="stroke:#181818;stroke-width:1.5;"/><polygon fill="#181818" points="95,100.7266,105,104.7266,95,108.7266,99,104.7266" style="stroke:#181818;stroke-width:1.0;"/><line style="stroke:#181818;stroke-width:1.0;" x1="12" x2="101" y1="104.7266" y2="104.7266"/><text fill="#000000" font-family="sans-serif" font-size="13" lengthAdjust="spacing" textLength="80" x="17.5" y="99.6606">github event</text><line style="stroke:#181818;stroke-width:1.0;" x1="117" x2="159" y1="133.8594" y2="133.8594"/><line style="stroke:#181818;stroke-width:1.0;" x1="159" x2="159" y1="133.8594" y2="146.8594"/><line style="stroke:#181818;stroke-width:1.0;" x1="118" x2="159" y1="146.8594" y2="146.8594"/><polygon fill="#181818" points="128,142.8594,118,146.8594,128,150.8594,124,146.8594" style="stroke:#181818;stroke-width:1.0;"/><text fill="#000000" font-family="sans-serif" font-size="13" lengthAdjust="spacing" textLength="114" x="124" y="128.7935">setup &amp; configure</text><line style="stroke:#181818;stroke-width:1.0;" x1="117" x2="159" y1="175.9922" y2="175.9922"/><line style="stroke:#181818;stroke-width:1.0;" x1="159" x2="159" y1="175.9922" y2="188.9922"/><line style="stroke:#181818;stroke-width:1.0;" x1="118" x2="159" y1="188.9922" y2="188.9922"/><polygon fill="#181818" points="128,184.9922,118,188.9922,128,192.9922,124,188.9922" style="stroke:#181818;stroke-width:1.0;"/><text fill="#000000" font-family="sans-serif" font-size="13" lengthAdjust="spacing" textLength="99" x="124" y="170.9263">'terraform-plan'</text><polygon fill="#181818" points="296,214.125,306,218.125,296,222.125,300,218.125" style="stroke:#181818;stroke-width:1.0;"/><line style="stroke:#181818;stroke-width:1.0;" x1="117" x2="302" y1="218.125" y2="218.125"/><text fill="#000000" font-family="sans-serif" font-size="13" lengthAdjust="spacing" textLength="172" x="126.5" y="213.0591">'post-tf-plan' repo-dispatch</text><path d="M50,233.125 L120,233.125 L120,240.2578 L110,250.2578 L50,250.2578 L50,233.125 " fill="#EEEEEE" style="stroke:#000000;stroke-width:1.5;"/><rect fill="none" height="101.3984" style="stroke:#000000;stroke-width:1.5;" width="245" x="50" y="233.125"/><text fill="#000000" font-family="sans-serif" font-size="13" font-weight="bold" lengthAdjust="spacing" textLength="25" x="65" y="246.1919">opt</text><line style="stroke:#181818;stroke-width:1.0;" x1="117" x2="159" y1="271.3906" y2="271.3906"/><line style="stroke:#181818;stroke-width:1.0;" x1="159" x2="159" y1="271.3906" y2="284.3906"/><line style="stroke:#181818;stroke-width:1.0;" x1="118" x2="159" y1="284.3906" y2="284.3906"/><polygon fill="#181818" points="128,280.3906,118,284.3906,128,288.3906,124,284.3906" style="stroke:#181818;stroke-width:1.0;"/><text fill="#000000" font-family="sans-serif" font-size="13" lengthAdjust="spacing" textLength="159" x="124" y="266.3247">'terraform approval gate'</text><line style="stroke:#181818;stroke-width:1.0;" x1="117" x2="159" y1="313.5234" y2="313.5234"/><line style="stroke:#181818;stroke-width:1.0;" x1="159" x2="159" y1="313.5234" y2="326.5234"/><line style="stroke:#181818;stroke-width:1.0;" x1="118" x2="159" y1="326.5234" y2="326.5234"/><polygon fill="#181818" points="128,322.5234,118,326.5234,128,330.5234,124,326.5234" style="stroke:#181818;stroke-width:1.0;"/><text fill="#000000" font-family="sans-serif" font-size="13" lengthAdjust="spacing" textLength="106" x="124" y="308.4575">'terraform-apply'</text><line style="stroke:#A80036;stroke-width:2.0;" x1="103" x2="121" y1="341.5234" y2="359.5234"/><line style="stroke:#A80036;stroke-width:2.0;" x1="103" x2="121" y1="359.5234" y2="341.5234"/><path d="M188,366.5234 L258,366.5234 L258,373.6563 L248,383.6563 L188,383.6563 L188,366.5234 " fill="#EEEEEE" style="stroke:#000000;stroke-width:1.5;"/><rect fill="none" height="332.9375" style="stroke:#000000;stroke-width:1.5;" width="436.5" x="188" y="366.5234"/><text fill="#000000" font-family="sans-serif" font-size="13" font-weight="bold" lengthAdjust="spacing" textLength="25" x="203" y="379.5903">opt</text><text fill="#000000" font-family="sans-serif" font-size="11" font-weight="bold" lengthAdjust="spacing" textLength="90" x="273" y="378.7339">[on_schedule]</text><path d="M198,388.6563 L198,443.6563 L428,443.6563 L428,398.6563 L418,388.6563 L198,388.6563 " fill="#B0E0E6" style="stroke:#181818;stroke-width:0.5;"/><path d="M418,388.6563 L418,398.6563 L428,398.6563 L418,388.6563 " fill="#B0E0E6" style="stroke:#181818;stroke-width:0.5;"/><text fill="#000000" font-family="sans-serif" font-size="13" lengthAdjust="spacing" textLength="197" x="204" y="405.7231">use hashfiles(terraform/*.tf) as</text><text fill="#000000" font-family="sans-serif" font-size="13" lengthAdjust="spacing" textLength="209" x="204" y="420.856">the key to search for in the issue</text><text fill="#000000" font-family="sans-serif" font-size="13" lengthAdjust="spacing" textLength="31" x="204" y="435.9888">body</text><line style="stroke:#181818;stroke-width:1.0;" x1="318" x2="360" y1="470.1875" y2="470.1875"/><line style="stroke:#181818;stroke-width:1.0;" x1="360" x2="360" y1="470.1875" y2="483.1875"/><line style="stroke:#181818;stroke-width:1.0;" x1="319" x2="360" y1="483.1875" y2="483.1875"/><polygon fill="#181818" points="329,479.1875,319,483.1875,329,487.1875,325,483.1875" style="stroke:#181818;stroke-width:1.0;"/><text fill="#000000" font-family="sans-serif" font-size="13" lengthAdjust="spacing" textLength="152" x="325" y="465.1216">hashfiles terraform/**.tf</text><line style="stroke:#181818;stroke-width:1.0;" x1="318" x2="360" y1="512.3203" y2="512.3203"/><line style="stroke:#181818;stroke-width:1.0;" x1="360" x2="360" y1="512.3203" y2="525.3203"/><line style="stroke:#181818;stroke-width:1.0;" x1="319" x2="360" y1="525.3203" y2="525.3203"/><polygon fill="#181818" points="329,521.3203,319,525.3203,329,529.3203,325,525.3203" style="stroke:#181818;stroke-width:1.0;"/><text fill="#000000" font-family="sans-serif" font-size="13" lengthAdjust="spacing" textLength="113" x="325" y="507.2544">find existing issue</text><path d="M262.5,540.3203 L326.5,540.3203 L326.5,547.4531 L316.5,557.4531 L262.5,557.4531 L262.5,540.3203 " fill="#EEEEEE" style="stroke:#000000;stroke-width:1.5;"/><rect fill="none" height="134.1406" style="stroke:#000000;stroke-width:1.5;" width="352" x="262.5" y="540.3203"/><text fill="#000000" font-family="sans-serif" font-size="13" font-weight="bold" lengthAdjust="spacing" textLength="19" x="277.5" y="553.3872">alt</text><text fill="#000000" font-family="sans-serif" font-size="11" font-weight="bold" lengthAdjust="spacing" textLength="268" x="341.5" y="552.5308">[has_changes &amp; no open issue with hash]</text><ellipse cx="411.5" cy="577.8359" fill="none" rx="4" ry="4" style="stroke:#181818;stroke-width:1.5;"/><polygon fill="#181818" points="394.5,574.5859,404.5,578.5859,394.5,582.5859,398.5,578.5859" style="stroke:#181818;stroke-width:1.0;"/><line style="stroke:#181818;stroke-width:1.0;" x1="318" x2="400.5" y1="578.5859" y2="578.5859"/><text fill="#000000" font-family="sans-serif" font-size="13" lengthAdjust="spacing" textLength="62" x="334" y="573.52">new issue</text><line style="stroke:#000000;stroke-width:1.0;stroke-dasharray:2.0,2.0;" x1="262.5" x2="614.5" y1="587.5859" y2="587.5859"/><text fill="#000000" font-family="sans-serif" font-size="11" font-weight="bold" lengthAdjust="spacing" textLength="248" x="267.5" y="597.7964">[has_changes &amp; open issue with hash]</text><ellipse cx="484.5" cy="621.7734" fill="none" rx="4" ry="4" style="stroke:#181818;stroke-width:1.5;"/><polygon fill="#181818" points="467.5,618.5234,477.5,622.5234,467.5,626.5234,471.5,622.5234" style="stroke:#181818;stroke-width:1.0;"/><line style="stroke:#181818;stroke-width:1.0;" x1="318" x2="473.5" y1="622.5234" y2="622.5234"/><text fill="#000000" font-family="sans-serif" font-size="13" lengthAdjust="spacing" textLength="135" x="334" y="617.4575">update existing issue</text><line style="stroke:#000000;stroke-width:1.0;stroke-dasharray:2.0,2.0;" x1="262.5" x2="614.5" y1="631.5234" y2="631.5234"/><text fill="#000000" font-family="sans-serif" font-size="11" font-weight="bold" lengthAdjust="spacing" textLength="241" x="267.5" y="641.7339">[no_changes &amp; open issue with hash]</text><ellipse cx="472.5" cy="665.7109" fill="none" rx="4" ry="4" style="stroke:#181818;stroke-width:1.5;"/><polygon fill="#181818" points="455.5,662.4609,465.5,666.4609,455.5,670.4609,459.5,666.4609" style="stroke:#181818;stroke-width:1.0;"/><line style="stroke:#181818;stroke-width:1.0;" x1="318" x2="461.5" y1="666.4609" y2="666.4609"/><text fill="#000000" font-family="sans-serif" font-size="13" lengthAdjust="spacing" textLength="123" x="334" y="661.395">close existing issue</text><line style="stroke:#A80036;stroke-width:2.0;" x1="304" x2="322" y1="681.4609" y2="699.4609"/><line style="stroke:#A80036;stroke-width:2.0;" x1="304" x2="322" y1="699.4609" y2="681.4609"/><!--SRC=[bP91Rzim38Nl_XL41pJh0BVt7Zgiw7N03hljK2WIRGjHI4sYakNVbr9S9riwhBiODlNulKVAUUCfccIsaF5dGRBu5NCs8tu9VYImI8Afcxn3A1GyRT1ruYKWFA6W5KyZVCUKpC1f2q_93z8fJxprqP30bRmUtXwsuGfCXgK27oAcyeTyw5s5BEhsfKhUEqphKB3hVd3_SABSm-XbAcl0dORjZ6RQ6S4B6pXL-eUpxenI8bo3PHhyM1B-LRawbMCmjFfTs8AgA7AMNiTe4aWOkNS-HoDsqeObtZpNjpRNOvqBWAFeyz_sO69Cl3C1HaMjtjNJQqyuL2sIQquEioG-d3exhGBJSxOJkX9g8cADoZjCR-O5A1bXCdaQVC3ySI7TVRgLuKQlxnXjGjYW6h4ksoGxWMh0KplmES-iDRl37A_QwclpN3Qx-C2PJpMwK0vU6VZBv_PxlZgO89NnR2T3erAkrKONWNHKm5v_esRIqin4_dmFXFi5Wk4uyHdbFOWINRtqYqmDH_oVD1iulmNJgNN8kexvQbjFL-jZuX9V0000]--></g></svg>